<svg width="182" height="116" viewBox="0 0 182 116" fill="none" xmlns="http://www.w3.org/2000/svg">
<path d="M119.909 43.3124C122.648 43.3124 125.254 44.497 127.066 46.5524L162.184 86.6175L162.427 86.896L149.495 115.486H149.091L130.508 94.2758L114.015 75.4481C112.21 73.3857 109.605 72.2008 106.866 72.2007L19.5863 72.1807H19.5377L32.6167 43.3124H119.909ZM100.372 86.513C103.11 86.513 105.723 87.6976 107.528 89.7529L129.992 115.381H0L13.079 86.513H100.372ZM139.476 0C142.214 1.82529e-05 144.827 1.18485 146.632 3.24732L182 43.6194L168.928 72.5151L133.553 32.1156C131.748 30.0531 129.135 28.8683 126.397 28.8683H39.0829L52.1618 0H139.476Z" fill="black"/>
</svg>
